<svg width="29" height="22" viewBox="0 0 29 22" fill="none" xmlns="http://www.w3.org/2000/svg">
<path d="M23.7905 2.25461C22.0529 1.44461 20.1716 0.856706 18.212 0.517029C18.1775 0.51752 18.1446 0.531607 18.1205 0.556223C17.8853 0.987351 17.611 1.54912 17.4281 1.98025C15.3495 1.6669 13.2357 1.6669 11.1571 1.98025C10.9742 1.53606 10.6999 0.987351 10.4516 0.556223C10.4386 0.530094 10.3994 0.517029 10.3602 0.517029C8.40051 0.856706 6.53229 1.44461 4.78164 2.25461C4.76858 2.25461 4.75551 2.26767 4.74245 2.28074C1.1889 7.59799 0.209066 12.7715 0.692453 17.8928C0.692453 17.9189 0.705517 17.9451 0.731646 17.9581C3.08326 19.6827 5.34342 20.7278 7.57745 21.4202C7.61664 21.4333 7.65583 21.4202 7.6689 21.3941C8.19148 20.6756 8.6618 19.9178 9.0668 19.1209C9.09293 19.0686 9.0668 19.0164 9.01454 19.0033C8.26986 18.7159 7.56438 18.3762 6.87196 17.9843C6.8197 17.9581 6.8197 17.8798 6.8589 17.8406C7.00261 17.736 7.14632 17.6185 7.29003 17.5139C7.31616 17.4878 7.35535 17.4878 7.38148 17.5009C11.8757 19.552 16.7226 19.552 21.1645 17.5009C21.1907 17.4878 21.2299 17.4878 21.256 17.5139C21.3997 17.6315 21.5434 17.736 21.6871 17.8536C21.7394 17.8928 21.7394 17.9712 21.674 17.9973C20.9947 18.4023 20.2761 18.7289 19.5315 19.0164C19.4792 19.0294 19.4661 19.0947 19.4792 19.1339C19.8973 19.9309 20.3676 20.6886 20.8771 21.4072C20.9163 21.4202 20.9555 21.4333 20.9947 21.4202C23.2418 20.7278 25.5019 19.6827 27.8536 17.9581C27.8797 17.9451 27.8927 17.9189 27.8927 17.8928C28.4676 11.9746 26.939 6.84025 23.8427 2.28074C23.8297 2.26767 23.8166 2.25461 23.7905 2.25461ZM9.74615 14.7704C8.40051 14.7704 7.27696 13.5293 7.27696 12.0007C7.27696 10.4722 8.37438 9.23105 9.74615 9.23105C11.131 9.23105 12.2284 10.4852 12.2153 12.0007C12.2153 13.5293 11.1179 14.7704 9.74615 14.7704ZM18.8521 14.7704C17.5065 14.7704 16.3829 13.5293 16.3829 12.0007C16.3829 10.4722 17.4803 9.23105 18.8521 9.23105C20.2369 9.23105 21.3344 10.4852 21.3213 12.0007C21.3213 13.5293 20.2369 14.7704 18.8521 14.7704Z" fill="#383838"/>
</svg>
