<svg width="22" height="25" viewBox="0 0 22 25" fill="none" xmlns="http://www.w3.org/2000/svg">
<path d="M10.3968 1.79931V3.79096L8.72119 2.51636C8.29022 2.18852 7.67763 2.27581 7.35341 2.71015C7.02977 3.14371 7.11521 3.76006 7.54539 4.0873L10.303 6.18499C10.3334 6.20812 10.3647 6.22919 10.3968 6.24821V10.5867L6.74397 8.37111C6.74619 8.32215 6.74481 8.27242 6.73959 8.22222L6.37866 4.75571C6.3225 4.21633 5.84319 3.82282 5.30579 3.87984C4.76861 3.93684 4.3811 4.42197 4.43724 4.96115L4.66071 7.10749L2.89496 6.03646C2.43218 5.75576 1.83213 5.90744 1.55484 6.37331C1.278 6.83842 1.42657 7.44253 1.88857 7.72276L3.67461 8.80609L1.66023 9.62767C1.16004 9.83168 0.919895 10.4052 1.12114 10.908C1.32264 11.4115 1.89147 11.6563 2.39234 11.452L5.59378 10.1463C5.64931 10.1236 5.70165 10.0964 5.75053 10.0653L9.52309 12.3535L5.76249 14.6346C5.72105 14.6099 5.67728 14.588 5.6313 14.5693L2.42986 13.2635C1.929 13.0593 1.36016 13.3041 1.15866 13.8075C0.957419 14.3103 1.19756 14.8839 1.69775 15.0879L3.68133 15.8969L1.87493 16.9926C1.41293 17.2728 1.26435 17.8769 1.54119 18.342C1.81848 18.8079 2.41854 18.9596 2.88132 18.6789L4.70171 17.5747L4.47476 19.7544C4.41862 20.2936 4.80614 20.7787 5.34331 20.8357C5.88071 20.8927 6.36003 20.4992 6.41619 19.9598L6.77711 16.4933C6.78341 16.4328 6.78412 16.373 6.77966 16.3143L10.3968 14.1203V18.4459C10.3647 18.4649 10.3334 18.486 10.303 18.5091L7.54539 20.6068C7.11521 20.9341 7.02977 21.5504 7.35341 21.984C7.67763 22.4183 8.29022 22.5056 8.72119 22.1778L10.3968 20.9032V22.9589C10.3968 23.5268 10.8531 23.9894 11.4189 23.9894C11.9846 23.9894 12.441 23.5268 12.441 22.9589V20.9072L14.1112 22.1778C14.5422 22.5056 15.1548 22.4183 15.479 21.984C15.8027 21.5504 15.7172 20.9341 15.287 20.6068L12.5294 18.5091C12.5007 18.4873 12.4712 18.4673 12.441 18.4491V14.1234L16.053 16.3143C16.0485 16.373 16.0493 16.4328 16.0556 16.4933L16.4165 19.9598C16.4726 20.4992 16.952 20.8927 17.4894 20.8357C18.0265 20.7787 18.414 20.2936 18.3579 19.7544L18.131 17.5747L19.9513 18.6789C20.4141 18.9596 21.0142 18.8079 21.2915 18.342C21.5683 17.8769 21.4197 17.2728 20.9577 16.9926L19.1513 15.8969L21.1349 15.0879C21.6351 14.8839 21.8752 14.3103 21.674 13.8075C21.4725 13.3041 20.9037 13.0593 20.4028 13.2635L17.2014 14.5693C17.1554 14.588 17.1116 14.6099 17.0702 14.6346L13.3096 12.3535L17.0821 10.0653C17.131 10.0964 17.1833 10.1236 17.2389 10.1463L20.4403 11.452C20.9412 11.6563 21.51 11.4115 21.7115 10.908C21.9128 10.4052 21.6726 9.83168 21.1724 9.62767L19.1581 8.80609L20.9441 7.72276C21.4061 7.44253 21.5547 6.83842 21.2778 6.37331C21.0005 5.90744 20.4005 5.75576 19.9377 6.03646L18.172 7.10749L18.3954 4.96115C18.4516 4.42197 18.0641 3.93684 17.5269 3.87984C16.9895 3.82282 16.5102 4.21633 16.454 4.75571L16.0931 8.22222C16.0879 8.27242 16.0865 8.32215 16.0887 8.37111L12.441 10.5837V6.24504C12.4712 6.22686 12.5007 6.20685 12.5294 6.18499L15.287 4.0873C15.7172 3.76006 15.8027 3.14371 15.479 2.71015C15.1548 2.27581 14.5422 2.18852 14.1112 2.51636L12.441 3.78693V1.79931C12.441 1.23142 11.9846 0.768826 11.4189 0.768826C10.8531 0.768826 10.3968 1.23142 10.3968 1.79931Z" fill="#64C6FF" stroke="#64C6FF" stroke-width="0.276435"/>
</svg>
