<svg width="26" height="26" viewBox="0 0 26 26" fill="none" xmlns="http://www.w3.org/2000/svg">
<path d="M23.1624 0.438171C23.9009 0.438171 24.6093 0.73157 25.1315 1.25382C25.6538 1.77607 25.9472 2.4844 25.9472 3.22298V22.7166C25.9472 23.4552 25.6538 24.1635 25.1315 24.6858C24.6093 25.208 23.9009 25.5014 23.1624 25.5014H3.66872C2.93014 25.5014 2.22181 25.208 1.69956 24.6858C1.17731 24.1635 0.883911 23.4552 0.883911 22.7166V3.22298C0.883911 2.4844 1.17731 1.77607 1.69956 1.25382C2.22181 0.73157 2.93014 0.438171 3.66872 0.438171H23.1624ZM22.4662 22.0204V14.6407C22.4662 13.4368 21.9879 12.2822 21.1366 11.431C20.2854 10.5797 19.1308 10.1014 17.9269 10.1014C16.7434 10.1014 15.3649 10.8255 14.6965 11.9116V10.366H10.8117V22.0204H14.6965V15.1559C14.6965 14.0837 15.5598 13.2065 16.632 13.2065C17.149 13.2065 17.6448 13.4119 18.0104 13.7775C18.376 14.143 18.5814 14.6389 18.5814 15.1559V22.0204H22.4662ZM6.28643 8.17993C6.90684 8.17993 7.50183 7.93348 7.94053 7.49479C8.37922 7.05609 8.62567 6.4611 8.62567 5.84069C8.62567 4.54576 7.58137 3.48753 6.28643 3.48753C5.66234 3.48753 5.0638 3.73546 4.6225 4.17676C4.1812 4.61806 3.93327 5.2166 3.93327 5.84069C3.93327 7.13563 4.9915 8.17993 6.28643 8.17993ZM8.22188 22.0204V10.366H4.36492V22.0204H8.22188Z" fill="#383838"/>
</svg>
