<svg width="29" height="28" viewBox="0 0 29 28" fill="none" xmlns="http://www.w3.org/2000/svg">
<ellipse cx="14.3631" cy="14.1473" rx="10.2909" ry="11.2255" transform="rotate(16.8957 14.3631 14.1473)" fill="#D9C9B7"/>
<path d="M21.5344 16.3359C19.7984 22.0511 14.4907 25.3806 9.76216 23.9444C5.03366 22.5082 2.47434 16.789 4.21027 11.0739C5.9462 5.35874 11.254 2.02918 15.9825 3.46542C20.711 4.90166 23.2703 10.6208 21.5344 16.3359Z" fill="#EFE2D3" stroke="#E5D5C3" stroke-width="0.800339"/>
<path d="M25.6588 10.0735C25.9719 9.85761 26.0898 9.45122 25.9409 9.10129L25.7199 8.5819C25.6384 8.39039 25.6347 8.17467 25.7096 7.98048L25.9165 7.44398C26.0587 7.07549 25.9108 6.6584 25.5682 6.4618L25.1804 6.23925C24.986 6.12767 24.8473 5.93967 24.7981 5.72098L24.695 5.26345C24.6028 4.85427 24.2104 4.58565 23.7956 4.64782L23.4159 4.70473C23.1848 4.73936 22.9502 4.67128 22.7735 4.51836L22.4825 4.26646C22.1657 3.99222 21.6909 4.00879 21.394 4.30444L21.0641 4.6329C20.905 4.79136 20.6866 4.87566 20.4622 4.86522L20.0191 4.84462C19.6238 4.82623 19.2744 5.09952 19.1971 5.48762L19.084 6.0549C19.0434 6.25847 18.9253 6.43832 18.7546 6.55647L18.2861 6.88083C17.9738 7.09699 17.8565 7.50282 18.0052 7.85226L18.2267 8.37283C18.3082 8.56428 18.3119 8.77993 18.237 8.97408L18.0286 9.51486C17.8866 9.88332 18.0345 10.3003 18.377 10.4969L18.7654 10.7198C18.9595 10.8312 19.0981 11.0188 19.1476 11.237L19.2503 11.6905C19.3431 12.0999 19.7365 12.3681 20.1516 12.3048L20.5307 12.2469C20.7624 12.2116 20.9979 12.2796 21.1752 12.433L21.4652 12.6841C21.7821 12.9583 22.2568 12.9417 22.5537 12.6461L22.8846 12.3167C23.0431 12.1588 23.2606 12.0745 23.4842 12.0842L23.9315 12.1038C24.3261 12.121 24.6742 11.8479 24.7513 11.4605L24.8636 10.8965C24.9043 10.6924 25.0228 10.5122 25.1942 10.394L25.6588 10.0735ZM21.4146 9.76479C21.0159 10.0031 20.4987 9.8531 20.2895 9.43842L19.8539 8.57537C19.7516 8.37272 19.8235 8.12548 20.0185 8.00927C20.234 7.88089 20.5131 7.96219 20.6259 8.18617L20.7233 8.37956C20.8889 8.70845 21.2989 8.82749 21.615 8.63845L23.5783 7.46397C23.7935 7.33522 24.0727 7.41597 24.186 7.63971C24.2886 7.84227 24.217 8.08966 24.0221 8.20616L21.4146 9.76479Z" fill="#64C6FF"/>
<rect x="20.1989" y="5.58441" width="4.97507" height="4.37758" transform="rotate(16.1774 20.1989 5.58441)" fill="#64C6FF"/>
<path d="M23.5818 7.95301L21.1214 9.4192L20.5333 8.25771" stroke="white" stroke-width="1.06712" stroke-linecap="round" stroke-linejoin="round"/>
<path d="M7.62277 6.12078L21.0206 16.9874C20.2717 19.0512 18.7768 20.852 18.1229 21.4944L4.72035 10.4576C5.20077 8.4012 6.85547 6.70955 7.62277 6.12078Z" fill="white" fill-opacity="0.22"/>
</svg>
