<svg width="25" height="26" viewBox="0 0 25 26" fill="none" xmlns="http://www.w3.org/2000/svg">
<path d="M13.7949 5.44019C14.0012 4.90095 13.7313 4.29654 13.1921 4.09022L5.98716 1.33344C4.65061 0.822043 3.15255 1.49096 2.64115 2.82751L1.7587 5.13383C1.27076 6.40907 1.909 7.83841 3.18424 8.32635L10.5002 11.1256C11.0394 11.3319 11.6438 11.062 11.8501 10.5228L13.7949 5.44019Z" fill="#383838"/>
<path d="M11.6075 20.4977C11.4011 21.0369 11.671 21.6413 12.2103 21.8477L19.4152 24.6044C20.7517 25.1158 22.2498 24.4469 22.7612 23.1104L23.6436 20.804C24.1316 19.5288 23.4933 18.0995 22.2181 17.6115L14.9022 14.8123C14.3629 14.6059 13.7585 14.8758 13.5522 15.4151L11.6075 20.4977Z" fill="#383838"/>
<circle cx="12.5987" cy="12.8361" r="10.1821" fill="#383838" stroke="white" stroke-width="0.570526"/>
<mask id="mask0_160_38" style="mask-type:alpha" maskUnits="userSpaceOnUse" x="2" y="2" width="21" height="21">
<circle cx="12.5987" cy="12.8361" r="9.89085" fill="#D9D9D9" stroke="black" stroke-width="0.011886"/>
</mask>
<g mask="url(#mask0_160_38)">
<path d="M2.47034 14.6722L19.3277 4.86499M6.13326 20.9346L22.9906 11.1274" stroke="white" stroke-width="0.915219"/>
</g>
</svg>
