<svg width="26" height="25" viewBox="0 0 26 25" fill="none" xmlns="http://www.w3.org/2000/svg">
<path d="M24.0039 10.9297C24.5865 11.5959 24.5865 12.5905 24.0039 13.2567L23.3294 14.028C22.7655 14.6727 22.4908 15.5206 22.5694 16.3735L22.6629 17.3882C22.7442 18.271 22.1589 19.0775 21.2944 19.2739L20.3078 19.498C19.4703 19.6882 18.7479 20.2145 18.3101 20.9534L17.7934 21.8255C17.3407 22.5895 16.3914 22.899 15.5754 22.5486L14.6535 22.1527C13.8632 21.8134 12.9681 21.8145 12.1786 22.1558L11.2585 22.5536C10.4418 22.9067 9.48998 22.5977 9.03646 21.8322L8.52251 20.9648C8.08474 20.2259 7.36235 19.6996 6.52485 19.5094L5.53773 19.2851C4.67334 19.0888 4.08807 18.2825 4.16918 17.3998L4.26354 16.373C4.3419 15.5203 4.06717 14.6728 3.50348 14.0283L2.82624 13.2539C2.24433 12.5885 2.24345 11.5955 2.82418 10.9291L3.50736 10.1452C4.06864 9.50106 4.34196 8.65536 4.26378 7.8046L4.16971 6.78087C4.08843 5.89641 4.67616 5.089 5.5428 4.89455L6.51876 4.67557C7.35955 4.48691 8.08523 3.95967 8.52446 3.21832L9.0392 2.34953C9.49188 1.58549 10.4412 1.27599 11.2572 1.62639L12.1825 2.02371C12.9702 2.36199 13.8624 2.36199 14.6502 2.02371L15.5727 1.62757C16.3895 1.2768 17.3398 1.58734 17.7919 2.35279L18.3099 3.22973C18.7474 3.9705 19.4707 4.49829 20.3097 4.68885L21.2944 4.91251C22.1589 5.1089 22.7442 5.9154 22.6629 6.79825L22.5694 7.81291C22.4908 8.66584 22.7655 9.51366 23.3294 10.1584L24.0039 10.9297ZM9.03027 16.203C10.2522 17.4281 12.2367 17.4281 13.4585 16.2029L19.2218 10.4239C19.9502 9.69353 19.9494 8.51116 19.22 7.78174C18.489 7.05074 17.3035 7.05175 16.5737 7.784L12.0837 12.2894C11.6208 12.7538 10.8686 12.7537 10.406 12.289L9.92915 11.8101C9.19961 11.0774 8.01384 11.0762 7.28272 11.8073C6.55339 12.5366 6.55261 13.7188 7.28098 14.4491L9.03027 16.203Z" fill="#FFCD6C" stroke="#FFD889" stroke-width="1.35959"/>
<rect x="5.80261" y="6.13574" width="14.6836" height="11.6925" fill="#FFCD6C"/>
<path d="M17.4068 9.39874L12.0462 14.9683L9.6095 12.4367" fill="#FFCD6C"/>
<path d="M17.4068 9.39874L12.0462 14.9683L9.6095 12.4367" stroke="white" stroke-width="2.44726" stroke-linecap="round" stroke-linejoin="round"/>
</svg>
